<svg width="102" height="102" viewBox="0 0 102 102" fill="none" xmlns="http://www.w3.org/2000/svg">
<path d="M61.0969 27.3948L85.9471 15.9425L74.4948 40.7927L74.2685 41.2838L74.7758 41.4711L100.446 50.9448L74.7758 60.4186L74.2685 60.6058L74.4948 61.0969L85.9471 85.9471L61.0969 74.4948L60.6058 74.2685L60.4186 74.7758L50.9448 100.446L41.4711 74.7758L41.2838 74.2685L40.7927 74.4948L15.9425 85.9471L27.3948 61.0969L27.6211 60.6058L27.1138 60.4186L1.4441 50.9448L27.1138 41.4711L27.6211 41.2838L27.3948 40.7927L15.9425 15.9425L40.7927 27.3948L41.2838 27.6211L41.4711 27.1138L50.9448 1.4441L60.4186 27.1138L60.6058 27.6211L61.0969 27.3948Z" stroke="#020202"/>
</svg>
